<svg xmlns="http://www.w3.org/2000/svg" viewBox="0 0 1103.65 305.21"><defs><style>.cls-1{fill:#eb2028;}</style></defs><g id="Layer_2" data-name="Layer 2"><g id="LOGO"><path d="M345,94.47c.33,5.1.82,9.19.82,13.28q.1,44.49,0,89c-.05,64.49-56.21,114.85-120.18,107.82-42.44-4.66-80.24-38.52-90.57-81.79a125,125,0,0,1-3.27-27.13c-.41-28.16-.18-56.32-.14-84.49.05-41.92,19.43-73,54-95.34A102.58,102.58,0,0,1,228.75.39V41.12c-19,3.47-34.29,12.68-45.41,28.33a66.38,66.38,0,0,0-12.64,39.23q0,43.24,0,86.49c0,35.73,27.82,67,61.64,69.47,36.77,2.7,67.86-22.08,73.13-59,1.36-9.49.75-19.27.84-28.92.12-12.33,0-24.66.08-37,0-1.73.18-4,1.22-5.09C319.73,121.45,332,108.38,345,94.47Z"/><path d="M41,45H0V2.12H80.43V304.24H41Z"/><path d="M456,134.62c-13.41-30.75-26.36-60.44-39.3-90.13l-.8.16V134H397.73V.16c6.6,0,13.23-.25,19.8.2,1.4.1,3.11,2.53,3.84,4.25,10.86,25.5,21.56,51.06,32.32,76.6.61,1.45,1.31,2.85,2.38,5.16,6.18-14.05,12-27.2,17.75-40.37C480,32,486.11,18.05,492.1,4c1.19-2.78,2.57-4.12,5.84-3.94,5.79.32,11.62.09,17.76.09V133.92H497.38V45.68l-1.21-.29C482.93,74.76,469.7,104.13,456,134.62Z"/><path d="M722.68,134.51c-6.38,0-12.68.22-18.94-.18-1.41-.09-3.08-2.12-4-3.64Q673.36,85.5,647.13,40.21a12.84,12.84,0,0,0-3.64-4.41v98.47H625.27V.17c6.66,0,13.3-.22,19.9.19,1.34.09,2.84,2.43,3.75,4q26.8,47,53.48,94c.62,1.09,1.31,2.13,2.74,4.45V.52h17.54Z"/><path class="cls-1" d="M250.16,164.39c-8-7.47-15.94-14.81-24.24-22.54,22.64-24.37,45.14-48.59,67.87-73-11.42-15.24-27-23.12-44.74-27.68V.46c2.68.42,5.24.66,7.71,1.24,36.37,8.48,63.41,28.84,79.88,62.71,1.59,3.27,1.82,5.74-1,8.78q-42,44.81-83.77,89.88A15.83,15.83,0,0,1,250.16,164.39Z"/><path d="M800.73,170.36c38,.32,67.89,33.49,64.55,71.75-2.61,30-21.56,53.65-48.41,60.5-33.75,8.6-66.72-10.1-77.24-43.81-11.27-36.12,7.22-74.21,41.49-85.34A68.33,68.33,0,0,1,791.28,171C794.38,170.51,797.58,170.55,800.73,170.36Zm46.33,66.89c-.4-3.13-.7-6.28-1.22-9.39-5.07-30-37.88-47.28-64.81-34.14-19.61,9.56-30.24,33.67-24.61,55.83,5,19.91,20.74,34.63,38.57,36.18C823.71,288.22,847,266.5,847.06,237.25Z"/><path d="M1009.41,237.19c-.37,39-29.21,67.92-67.72,67.48-27-.3-51.23-20.32-59.2-48.88-9.8-35.08,9.8-72.46,43.41-82.78,36-11.07,75.07,12.88,81.9,50.33C1008.64,227.9,1008.89,232.57,1009.41,237.19Zm-64.54,48.94a72.83,72.83,0,0,0,8-1C971,281,983,269.89,988.27,252.23c5.43-18.1,1.84-34.71-11-48.67-17.18-18.63-46.8-19-64.34-1.3-17.31,17.51-19,46.86-3.72,66.28C918.15,280,929.9,285.9,944.87,286.13Z"/><path d="M637.15,304.47H618.26V170.9h18.36v60.44h61V170.91h18.89V304.43H697.73V249.18H637.15Z"/><path d="M1024.24.33h78.34V18.44h-59.86V59h47.76V77.35h-47.76v39h60.92v17.9h-79.4Z"/><path d="M764.34,0h18.52V5.39c0,26.65-.1,53.3,0,80,.07,12.15,5.49,21.5,16.44,27,10.62,5.34,21,4.19,30.56-2.82,7.86-5.78,11.73-13.89,11.75-23.65.07-26.65,0-53.3,0-80V.15h18.75c.09,1.33.26,2.61.26,3.89,0,26.81.07,53.63,0,80.45-.06,22.84-13.25,41.15-34,47.56a47.84,47.84,0,0,1-62.27-45.56c-.07-27.15,0-54.3,0-81.46Z"/><path d="M598.48,183.09l-8.32,17.35c-13.7-10-28.62-12.83-44.77-7.89A45.74,45.74,0,0,0,519.75,212a47.88,47.88,0,0,0,6.8,59.93c15.29,15,41.74,19.78,64.09,2.65,2.59,5.8,5.14,11.54,7.7,17.26-14.63,14.07-52.94,21.42-81.32-2.48-28.7-24.16-32.5-66.49-8.56-94.73C534.76,163.62,576.89,165.82,598.48,183.09Z"/><path d="M394.92,285l7.47-12.72c.5.18,1.08.2,1.33.5,10.74,12.92,25.06,16.34,40.88,14.77,13.22-1.31,22.17-14.3,19.4-27a16.52,16.52,0,0,0-11.15-12.46c-5.89-2.08-12.31-2.65-18.31-4.51-8.17-2.54-16.73-4.65-24.09-8.78-10.42-5.85-15.64-15.73-14.94-28,.86-14.85,7.93-25.93,21.43-32.39,16-7.64,40.08-2.27,52.1,11.61l-8.7,16.14c-7.86-8.77-16.92-14-28.63-13.56-9.71.36-17.52,7.88-18.62,18.18-.91,8.63,4.77,15.75,14.7,17.76,7.8,1.59,15.88,2,23.54,4.1,21.15,5.74,32.26,22.12,29.4,42.33-2.67,18.94-19.92,33.1-40.13,33.56-15.81.37-30-3.3-41.59-14.6A28.25,28.25,0,0,1,397,287.8C396.32,287,395.78,286.19,394.92,285Z"/><path d="M951.62,17.59V134.33h-18.8V17.78H889V.06H996.1V17.59Z"/><path d="M1029.29,170.88h18.06V286.39h56.3v18.12h-74.36Z"/><path d="M560.92.38h18.52v134H560.92Z"/></g></g></svg>