<svg viewBox="0 0 400.94 145.88" xmlns="http://www.w3.org/2000/svg" xmlns:xlink="http://www.w3.org/1999/xlink" id="Layer_1" overflow="hidden"><g><linearGradient x1="55.3439" y1="80.5085" x2="76.367" y2="80.5085" gradientUnits="userSpaceOnUse" id="SVGID_1_" gradientTransform="matrix(1 0 0 -1 0 201.875)"><stop offset="0" stop-color="#39BD8E"/><stop offset="1" stop-color="#009245"/></linearGradient><linearGradient x1="80.761" y1="80.5056" x2="103.592" y2="80.5056" gradientUnits="userSpaceOnUse" id="SVGID_2_" gradientTransform="matrix(1 0 0 -1 0 201.875)"><stop offset="0" stop-color="#39BD8E"/><stop offset="1" stop-color="#009245"/></linearGradient><linearGradient x1="103.063" y1="80.5056" x2="131.758" y2="80.5056" gradientUnits="userSpaceOnUse" id="SVGID_3_" gradientTransform="matrix(1 0 0 -1 0 201.875)"><stop offset="0" stop-color="#39BD8E"/><stop offset="1" stop-color="#009245"/></linearGradient><linearGradient x1="132.711" y1="80.48" x2="152.996" y2="80.48" gradientUnits="userSpaceOnUse" id="SVGID_4_" gradientTransform="matrix(1 0 0 -1 0 201.875)"><stop offset="0" stop-color="#39BD8E"/><stop offset="1" stop-color="#009245"/></linearGradient><linearGradient x1="156.39" y1="80.5056" x2="180.97" y2="80.5056" gradientUnits="userSpaceOnUse" id="SVGID_5_" gradientTransform="matrix(1 0 0 -1 0 201.875)"><stop offset="0" stop-color="#39BD8E"/><stop offset="1" stop-color="#009245"/></linearGradient><linearGradient x1="196.739" y1="80.5143" x2="217.75" y2="80.5143" gradientUnits="userSpaceOnUse" id="SVGID_6_" gradientTransform="matrix(1 0 0 -1 0 201.875)"><stop offset="0" stop-color="#39BD8E"/><stop offset="1" stop-color="#009245"/></linearGradient><linearGradient x1="220.773" y1="80.5085" x2="251.142" y2="80.5085" gradientUnits="userSpaceOnUse" id="SVGID_7_" gradientTransform="matrix(1 0 0 -1 0 201.875)"><stop offset="0" stop-color="#39BD8E"/><stop offset="1" stop-color="#009245"/></linearGradient><linearGradient x1="254.31" y1="80.1423" x2="278.268" y2="80.1423" gradientUnits="userSpaceOnUse" id="SVGID_8_" gradientTransform="matrix(1 0 0 -1 0 201.875)"><stop offset="0" stop-color="#39BD8E"/><stop offset="1" stop-color="#009245"/></linearGradient><linearGradient x1="282.784" y1="80.5056" x2="305.615" y2="80.5056" gradientUnits="userSpaceOnUse" id="SVGID_9_" gradientTransform="matrix(1 0 0 -1 0 201.875)"><stop offset="0" stop-color="#39BD8E"/><stop offset="1" stop-color="#009245"/></linearGradient><linearGradient x1="306.306" y1="80.5032" x2="326.591" y2="80.5032" gradientUnits="userSpaceOnUse" id="SVGID_10_" gradientTransform="matrix(1 0 0 -1 0 201.875)"><stop offset="0" stop-color="#39BD8E"/><stop offset="1" stop-color="#009245"/></linearGradient><linearGradient x1="329.974" y1="80.5143" x2="345.597" y2="80.5143" gradientUnits="userSpaceOnUse" id="SVGID_11_" gradientTransform="matrix(1 0 0 -1 0 201.875)"><stop offset="0" stop-color="#39BD8E"/><stop offset="1" stop-color="#009245"/></linearGradient><path d="M76.36 116.85C74.87 114.91 72.54 113.79 70.09 113.83 65.72 113.83 62.77 117.18 62.77 121.44 62.77 125.7 65.76 128.91 70.2 128.91 72.58 128.88 74.82 127.82 76.36 126L76.36 134.56C73.99 135.29 72.29 135.83 70.06 135.83 66.24 135.81 62.56 134.36 59.75 131.76 56.73 129.03 55.34 125.46 55.34 121.38 55.33 117.64 56.78 114.03 59.38 111.34 62.14 108.53 65.9 106.94 69.84 106.9 72.08 106.92 74.3 107.39 76.36 108.28L76.36 116.85Z" fill="url(#SVGID_1_)"/><path d="M103.59 135.1 94.7 135.1 87.96 124.54 87.9 124.54 87.9 135.1 80.76 135.1 80.76 107.64 91.43 107.64C96.85 107.64 100.97 110.23 100.97 116.09 100.97 119.87 98.86 123.15 94.96 123.84L103.59 135.1ZM87.9 119.95 88.59 119.95C90.91 119.95 93.54 119.51 93.54 116.53 93.54 113.55 90.92 113.09 88.59 113.09L87.9 113.09 87.9 119.95Z" fill="url(#SVGID_2_)"/><path d="M112.51 130.33 110.62 135.1 103.06 135.1 113.62 107.64 121.41 107.64 131.75 135.1 124.14 135.1 122.36 130.33 112.51 130.33ZM117.5 116.13 117.43 116.13 114.48 124.85 120.41 124.85 117.5 116.13Z" fill="url(#SVGID_3_)"/><path d="M149.04 114.7C147.72 113.57 146.04 112.92 144.3 112.88 142.99 112.88 141.24 113.65 141.24 115.18 141.24 116.71 143.17 117.4 144.41 117.8L146.23 118.35C150.05 119.48 153 121.41 153 125.88 153 128.61 152.34 131.41 150.16 133.27 147.95 135.02 145.19 135.94 142.37 135.86 138.91 135.83 135.54 134.73 132.72 132.73L135.78 126.98C137.56 128.55 139.68 129.82 142.12 129.82 143.8 129.82 145.61 128.98 145.61 127.05 145.61 125.12 142.81 124.35 141.28 123.92 136.8 122.65 133.85 121.48 133.85 116.17 133.85 110.6 137.82 106.96 143.32 106.96 146.32 107.01 149.27 107.79 151.91 109.22L149.04 114.7Z" fill="url(#SVGID_4_)"/><path d="M173.83 118.24 173.83 107.64 180.97 107.64 180.97 135.1 173.83 135.1 173.83 123.85 163.52 123.85 163.52 135.1 156.38 135.1 156.38 107.64 163.52 107.64 163.52 118.24 173.83 118.24Z" fill="url(#SVGID_5_)"/><path d="M217.75 116.85C216.26 114.91 213.93 113.79 211.48 113.83 207.11 113.83 204.16 117.18 204.16 121.44 204.16 125.7 207.15 128.91 211.59 128.91 213.97 128.88 216.21 127.82 217.75 126L217.75 134.56C215.38 135.29 213.68 135.83 211.45 135.83 207.63 135.81 203.95 134.36 201.14 131.76 198.12 129.03 196.73 125.46 196.73 121.38 196.72 117.63 198.18 114.02 200.8 111.33 203.56 108.52 207.32 106.93 211.26 106.89 213.5 106.91 215.72 107.38 217.78 108.27L217.75 116.85Z" fill="url(#SVGID_6_)"/><path d="M251.14 120.86C251.14 129.75 244.75 136.01 235.95 136.01 227.16 136.01 220.77 129.75 220.77 120.86 220.77 112.56 228.05 106.73 235.95 106.73 243.85 106.73 251.14 112.56 251.14 120.86ZM228.2 120.89C228.2 125.63 231.69 129.09 235.95 129.09 240.21 129.09 243.7 125.63 243.7 120.89 243.7 117.11 240.21 113.65 235.95 113.65 231.69 113.65 228.2 117.11 228.2 120.89Z" fill="url(#SVGID_7_)"/><path d="M278.27 107.64 278.27 123.08C278.27 126.61 278.12 130.11 275.39 132.77 273.07 135.03 269.49 135.83 266.29 135.83 263.09 135.83 259.48 135.03 257.19 132.77 254.46 130.11 254.28 126.61 254.28 123.08L254.28 107.64 261.42 107.64 261.42 122.1C261.42 125.67 261.67 129.57 266.26 129.57 270.85 129.57 271.1 125.67 271.1 122.1L271.1 107.64 278.27 107.64Z" fill="url(#SVGID_8_)"/><path d="M305.61 135.1 296.72 135.1 289.98 124.54 289.91 124.54 289.91 135.1 282.77 135.1 282.77 107.64 293.44 107.64C298.87 107.64 302.98 110.23 302.98 116.09 302.98 119.87 300.87 123.15 296.97 123.84L305.61 135.1ZM289.92 119.95 290.61 119.95C292.93 119.95 295.56 119.51 295.56 116.53 295.56 113.55 292.94 113.11 290.61 113.11L289.92 113.11 289.92 119.95Z" fill="url(#SVGID_9_)"/><path d="M322.62 114.7C321.3 113.57 319.62 112.92 317.88 112.88 316.57 112.88 314.82 113.65 314.82 115.18 314.82 116.71 316.75 117.4 317.99 117.8L319.81 118.35C323.63 119.48 326.59 121.41 326.59 125.85 326.59 128.58 325.93 131.38 323.75 133.24 321.54 134.99 318.78 135.91 315.96 135.83 312.5 135.8 309.13 134.7 306.31 132.7L309.37 126.95C311.15 128.52 313.27 129.79 315.71 129.79 317.39 129.79 319.2 128.95 319.2 127.02 319.2 125.09 316.39 124.32 314.86 123.89 310.38 122.62 307.43 121.45 307.43 116.14 307.43 110.57 311.4 106.93 316.9 106.93 319.9 106.98 322.85 107.76 325.49 109.19L322.62 114.7Z" fill="url(#SVGID_10_)"/><path d="M337.11 113.67 337.11 118.26 345.16 118.26 345.16 124.3 337.11 124.3 337.11 129.04 345.6 129.04 345.6 135.08 329.98 135.08 329.98 107.64 345.6 107.64 345.6 113.67 337.11 113.67Z" fill="url(#SVGID_11_)"/></g><g><linearGradient x1="99.2004" y1="172.565" x2="127.216" y2="172.565" gradientUnits="userSpaceOnUse" id="SVGID_12_" gradientTransform="matrix(1 0 0 -1 0 201.875)"><stop offset="0" stop-color="#00869D"/><stop offset="1" stop-color="#004CBC"/></linearGradient><linearGradient x1="131.11" y1="172.567" x2="154.225" y2="172.567" gradientUnits="userSpaceOnUse" id="SVGID_13_" gradientTransform="matrix(1 0 0 -1 0 201.875)"><stop offset="0" stop-color="#00869D"/><stop offset="1" stop-color="#004CBC"/></linearGradient><linearGradient x1="156.509" y1="172.565" x2="180.45" y2="172.565" gradientUnits="userSpaceOnUse" id="SVGID_14_" gradientTransform="matrix(1 0 0 -1 0 201.875)"><stop offset="0" stop-color="#00869D"/><stop offset="1" stop-color="#004CBC"/></linearGradient><linearGradient x1="198.416" y1="173.189" x2="223.56" y2="173.189" gradientUnits="userSpaceOnUse" id="SVGID_15_" gradientTransform="matrix(1 0 0 -1 0 201.875)"><stop offset="0" stop-color="#00869D"/><stop offset="1" stop-color="#004CBC"/></linearGradient><linearGradient x1="226.466" y1="172.55" x2="253.022" y2="172.55" gradientUnits="userSpaceOnUse" id="SVGID_16_" gradientTransform="matrix(1 0 0 -1 0 201.875)"><stop offset="0" stop-color="#00869D"/><stop offset="1" stop-color="#004CBC"/></linearGradient><linearGradient x1="255.347" y1="173.189" x2="280.491" y2="173.189" gradientUnits="userSpaceOnUse" id="SVGID_17_" gradientTransform="matrix(1 0 0 -1 0 201.875)"><stop offset="0" stop-color="#00869D"/><stop offset="1" stop-color="#004CBC"/></linearGradient><linearGradient x1="289.122" y1="172.565" x2="301.741" y2="172.565" gradientUnits="userSpaceOnUse" id="SVGID_18_" gradientTransform="matrix(1 0 0 -1 0 201.875)"><stop offset="0" stop-color="#00869D"/><stop offset="1" stop-color="#004CBC"/></linearGradient><path d="M119.08 25.74 119.08 13.67 127.22 13.67 127.22 44.96 119.08 44.96 119.08 32.13 107.34 32.13 107.34 44.95 99.2 44.95 99.2 13.67 107.34 13.67 107.34 25.74 119.08 25.74Z" fill="url(#SVGID_12_)"/><path d="M149.7 21.72C148.2 20.42 146.29 19.69 144.31 19.65 142.82 19.65 140.82 20.52 140.82 22.27 140.82 24.01 143.02 24.8 144.43 25.26L146.5 25.88C150.86 27.16 154.22 29.37 154.22 34.42 154.22 37.54 153.47 40.73 150.98 42.85 148.49 44.97 145.25 45.79 142.1 45.79 138.15 45.75 134.31 44.49 131.1 42.2L134.59 35.65C136.62 37.43 139.03 38.88 141.81 38.88 143.72 38.88 145.75 37.93 145.75 35.73 145.75 33.53 142.56 32.66 140.82 32.16 135.72 30.73 132.36 29.41 132.36 23.34 132.36 16.99 136.88 12.84 143.15 12.84 146.57 12.9 149.93 13.78 152.94 15.41L149.7 21.72Z" fill="url(#SVGID_13_)"/><path d="M180.45 24.17C178.75 21.96 176.1 20.68 173.31 20.72 168.33 20.72 164.97 24.54 164.97 29.4 164.97 34.26 168.37 37.9 173.43 37.9 176.14 37.86 178.7 36.65 180.45 34.58L180.45 44.33C177.75 45.16 175.8 45.78 173.27 45.78 168.92 45.77 164.73 44.12 161.52 41.18 158.08 38.07 156.5 34 156.5 29.35 156.48 25.08 158.13 20.97 161.1 17.9 164.25 14.69 168.54 12.87 173.04 12.83 175.6 12.85 178.12 13.39 180.47 14.41L180.45 24.17Z" fill="url(#SVGID_14_)"/><path d="M223.56 38.07 223.56 44.96 198.42 44.96 211.21 31.06C213.04 29.07 214.78 26.25 214.78 23.38 214.78 21.39 213.37 19.31 211.21 19.31 209.05 19.31 207.81 21.01 207.81 23.13 207.81 23.57 207.85 24.02 207.93 24.46L198.96 24.46C199.21 17.28 203.77 12.43 211.17 12.43 217.73 12.43 223.24 16.74 223.24 23.55 223.24 28.03 221.37 30.65 218.18 33.55L213.33 38.08 223.56 38.07Z" fill="url(#SVGID_15_)"/><path d="M253.02 29.31C253.02 37.45 249.08 46.2 239.74 46.2 230.41 46.2 226.46 37.44 226.46 29.31 226.46 21.18 230.45 12.45 239.74 12.45 249.03 12.45 253.02 21.18 253.02 29.31ZM234.56 29.27C234.56 32.3 235.56 39.02 239.75 39.02 243.94 39.02 244.93 32.3 244.93 29.27 244.93 26.24 243.96 19.6 239.75 19.6 235.54 19.6 234.56 26.24 234.56 29.27Z" fill="url(#SVGID_16_)"/><path d="M280.49 38.07 280.49 44.96 255.35 44.96 268.14 31.06C269.97 29.07 271.71 26.25 271.71 23.38 271.71 21.39 270.3 19.31 268.14 19.31 265.98 19.31 264.74 21.01 264.74 23.13 264.74 23.57 264.78 24.02 264.86 24.46L255.89 24.46C256.14 17.28 260.7 12.43 268.1 12.43 274.66 12.43 280.17 16.74 280.17 23.55 280.17 28.03 278.3 30.65 275.11 33.55L270.26 38.08 280.49 38.07Z" fill="url(#SVGID_17_)"/><path d="M289.12 20.55 289.12 13.66 301.74 13.66 301.74 44.95 293.6 44.95 293.6 20.54 289.12 20.55Z" fill="url(#SVGID_18_)"/></g><g><linearGradient x1="165.737" y1="125.405" x2="189.974" y2="125.405" gradientUnits="userSpaceOnUse" id="SVGID_19_" gradientTransform="matrix(1 0 0 -1 0 201.875)"><stop offset="0" stop-color="#00869D"/><stop offset="1" stop-color="#004CBC"/></linearGradient><linearGradient x1="190.404" y1="125.404" x2="223.173" y2="125.404" gradientUnits="userSpaceOnUse" id="SVGID_20_" gradientTransform="matrix(1 0 0 -1 0 201.875)"><stop offset="0" stop-color="#00869D"/><stop offset="1" stop-color="#004CBC"/></linearGradient><linearGradient x1="225.103" y1="125.404" x2="243.871" y2="125.404" gradientUnits="userSpaceOnUse" id="SVGID_21_" gradientTransform="matrix(1 0 0 -1 0 201.875)"><stop offset="0" stop-color="#00869D"/><stop offset="1" stop-color="#004CBC"/></linearGradient><linearGradient x1="246.655" y1="125.404" x2="265.423" y2="125.404" gradientUnits="userSpaceOnUse" id="SVGID_22_" gradientTransform="matrix(1 0 0 -1 0 201.875)"><stop offset="0" stop-color="#00869D"/><stop offset="1" stop-color="#004CBC"/></linearGradient><linearGradient x1="265.243" y1="125.404" x2="299.541" y2="125.404" gradientUnits="userSpaceOnUse" id="SVGID_23_" gradientTransform="matrix(1 0 0 -1 0 201.875)"><stop offset="0" stop-color="#00869D"/><stop offset="1" stop-color="#004CBC"/></linearGradient><linearGradient x1="302.209" y1="125.404" x2="327.26" y2="125.404" gradientUnits="userSpaceOnUse" id="SVGID_24_" gradientTransform="matrix(1 0 0 -1 0 201.875)"><stop offset="0" stop-color="#00869D"/><stop offset="1" stop-color="#004CBC"/></linearGradient><linearGradient x1="331.508" y1="124.954" x2="360.157" y2="124.954" gradientUnits="userSpaceOnUse" id="SVGID_25_" gradientTransform="matrix(1 0 0 -1 0 201.875)"><stop offset="0" stop-color="#00869D"/><stop offset="1" stop-color="#004CBC"/></linearGradient><linearGradient x1="364.092" y1="125.416" x2="388.329" y2="125.416" gradientUnits="userSpaceOnUse" id="SVGID_26_" gradientTransform="matrix(1 0 0 -1 0 201.875)"><stop offset="0" stop-color="#00869D"/><stop offset="1" stop-color="#004CBC"/></linearGradient><linearGradient x1="12.6121" y1="124.899" x2="36.4889" y2="124.899" gradientUnits="userSpaceOnUse" id="SVGID_27_" gradientTransform="matrix(1 0 0 -1 0 201.875)"><stop offset="0" stop-color="#00869D"/><stop offset="1" stop-color="#004CBC"/></linearGradient><linearGradient x1="39.7729" y1="124.884" x2="63.6264" y2="124.884" gradientUnits="userSpaceOnUse" id="SVGID_28_" gradientTransform="matrix(1 0 0 -1 0 201.875)"><stop offset="0" stop-color="#00869D"/><stop offset="1" stop-color="#004CBC"/></linearGradient><linearGradient x1="67.5956" y1="124.875" x2="99.7497" y2="124.875" gradientUnits="userSpaceOnUse" id="SVGID_29_" gradientTransform="matrix(1 0 0 -1 0 201.875)"><stop offset="0" stop-color="#00869D"/><stop offset="1" stop-color="#004CBC"/></linearGradient><linearGradient x1="103.725" y1="124.876" x2="127.573" y2="124.876" gradientUnits="userSpaceOnUse" id="SVGID_30_" gradientTransform="matrix(1 0 0 -1 0 201.875)"><stop offset="0" stop-color="#00869D"/><stop offset="1" stop-color="#004CBC"/></linearGradient><linearGradient x1="128.015" y1="124.884" x2="150.979" y2="124.884" gradientUnits="userSpaceOnUse" id="SVGID_31_" gradientTransform="matrix(1 0 0 -1 0 201.875)"><stop offset="0" stop-color="#00869D"/><stop offset="1" stop-color="#004CBC"/></linearGradient><path d="M185.23 68.5C183.65 67.15 181.65 66.38 179.57 66.34 178 66.34 175.91 67.25 175.91 69.08 175.91 70.91 178.23 71.74 179.7 72.21L181.87 72.87C186.44 74.22 189.97 76.53 189.97 81.84 189.97 85.11 189.19 88.45 186.57 90.67 183.95 92.89 180.56 93.76 177.27 93.76 173.13 93.72 169.11 92.42 165.73 90.02L169.39 83.14C171.52 85.02 174.04 86.54 176.95 86.54 178.95 86.54 181.08 85.53 181.08 83.23 181.08 80.84 177.73 80.01 175.9 79.49 170.54 77.97 167.02 76.58 167.02 70.22 167.02 63.55 171.76 59.18 178.34 59.18 181.93 59.24 185.46 60.17 188.62 61.88L185.23 68.5Z" fill="url(#SVGID_19_)"/><path d="M190.4 60.06 200.64 60.06 206.8 68.99 212.94 60.06 223.18 60.06 211.05 77.13 211.05 92.89 202.52 92.89 202.52 77.13 190.4 60.06Z" fill="url(#SVGID_20_)"/><path d="M233.64 85.66 243.88 85.66 243.88 92.88 225.1 92.88 225.1 60.06 233.63 60.06 233.63 85.66Z" fill="url(#SVGID_21_)"/><path d="M255.19 85.66 265.43 85.66 265.43 92.88 246.66 92.88 246.66 60.06 255.19 60.06 255.19 85.66Z" fill="url(#SVGID_22_)"/><path d="M276.55 87.18 274.29 92.88 265.25 92.88 277.88 60.05 287.18 60.05 299.55 92.88 290.45 92.88 288.32 87.18 276.55 87.18ZM282.51 70.2 282.43 70.2 278.9 80.66 286 80.66 282.51 70.2Z" fill="url(#SVGID_23_)"/><path d="M302.21 92.88 302.21 60.06 314.42 60.06C320.23 60.06 324.17 62.33 324.17 68.59 324.17 71.55 323.21 73.95 320.55 75.3L320.55 75.39C325.25 75.97 327.26 79.18 327.26 83.75 327.26 90.63 321.38 92.89 315.37 92.89L302.21 92.89ZM310.74 72.94 311.7 72.94C313.97 72.94 316.31 72.55 316.31 69.77 316.31 66.77 313.65 66.59 311.35 66.59L310.74 66.59 310.74 72.94ZM310.74 86.36 311.83 86.36C314.35 86.36 318.62 86.49 318.62 82.87 318.62 78.91 314.4 79.3 311.61 79.3L310.74 79.3 310.74 86.36Z" fill="url(#SVGID_24_)"/><path d="M360.16 60.06 360.16 78.55C360.16 82.78 359.99 86.95 356.72 90.13 353.98 92.83 349.66 93.79 345.83 93.79 342 93.79 337.69 92.84 334.94 90.13 331.67 86.95 331.5 82.77 331.5 78.55L331.5 60.06 340.03 60.06 340.03 77.35C340.03 81.62 340.34 86.28 345.84 86.28 351.34 86.28 351.65 81.63 351.65 77.35L351.65 60.06 360.16 60.06Z" fill="url(#SVGID_25_)"/><path d="M383.58 68.5C382 67.14 380 66.37 377.92 66.33 376.36 66.33 374.26 67.24 374.26 69.07 374.26 70.9 376.58 71.73 378.05 72.2L380.22 72.86C384.79 74.21 388.32 76.52 388.32 81.83 388.32 85.1 387.54 88.44 384.92 90.66 382.3 92.88 378.92 93.75 375.62 93.75 371.48 93.71 367.46 92.4 364.08 90.01L367.74 83.13C369.88 85.01 372.39 86.53 375.3 86.53 377.3 86.53 379.44 85.52 379.44 83.22 379.44 80.83 376.09 80 374.26 79.48 368.91 77.96 365.38 76.57 365.38 70.21 365.38 63.54 370.12 59.17 376.7 59.17 380.3 59.24 383.82 60.18 386.98 61.9L383.58 68.5Z" fill="url(#SVGID_26_)"/><path d="M12.61 85.43 18.71 81.9C19.81 84.46 21.71 86.18 25.2 86.18 28.55 86.18 29.4 84.85 29.4 83.66 29.4 81.76 27.66 81.01 23.01 79.73 18.36 78.45 13.91 76.24 13.91 70.32 13.91 64.4 18.93 60.91 24.3 60.91 29.38 60.91 33.36 63.34 35.61 67.88L29.65 71.37C28.59 69.16 27.13 67.8 24.3 67.8 22.09 67.8 20.99 68.9 20.99 70.12 20.99 71.53 21.75 72.5 26.56 73.96 31.21 75.37 36.5 77.01 36.5 83.54 36.5 89.5 31.73 93.03 25.01 93.03 18.48 93.08 14.34 89.97 12.61 85.43Z" fill="url(#SVGID_27_)"/><path d="M63.63 61.53 63.63 92.45 56.56 92.45 56.56 80.17 46.84 80.17 46.84 92.45 39.77 92.45 39.77 61.53 46.84 61.53 46.84 73.36 56.56 73.36 56.56 61.53 63.63 61.53Z" fill="url(#SVGID_28_)"/><path d="M67.6 76.99C67.61 68.11 74.81 60.92 83.69 60.92 92.57 60.92 99.76 68.13 99.76 77.01 99.75 85.88 92.56 93.08 83.68 93.08 74.88 93.15 67.68 86.08 67.6 77.27 67.6 77.17 67.6 77.08 67.6 76.99ZM92.68 76.99C92.68 71.47 88.7 67.81 83.67 67.81 78.64 67.81 74.66 71.48 74.66 76.99 74.66 82.51 78.64 86.18 83.67 86.18 88.71 86.18 92.68 82.51 92.68 76.99Z" fill="url(#SVGID_29_)"/><path d="M114.15 82.29 110.79 82.29 110.79 92.45 103.73 92.45 103.73 61.53 116.09 61.53C121.93 61.51 126.68 66.23 126.69 72.07 126.69 72.1 126.69 72.12 126.69 72.15 126.62 75.97 124.42 79.43 120.99 81.11L127.57 92.46 119.97 92.46 114.15 82.29ZM110.79 76.1 116.09 76.1C118.04 76.1 119.62 74.36 119.62 72.13 119.62 69.9 118.03 68.15 116.09 68.15L110.79 68.15 110.79 76.1Z" fill="url(#SVGID_30_)"/><path d="M151 68.33 143.03 68.33 143.03 92.45 135.96 92.45 135.96 68.33 128.01 68.33 128.01 61.53 151 61.53 151 68.33Z" fill="url(#SVGID_31_)"/></g></svg>